{
    "asset": {
        "generator": "SOLIDWORKSGLTF",
        "version": "2.0"
    },
    "scene": 0,
    "scenes": [
        {
            "name": "Default",
            "nodes": [
                0,
                1
            ]
        }
    ],
    "nodes": [
        {
            "matrix": [
                0.3825380409731027,
                -0.8996001243931442,
                -0.21067573044919205,
                0.0,
                0.5138895046781029,
                0.017664608239653212,
                0.8576744945475725,
                0.0,
                -0.7678425777398352,
                -0.4363571677050571,
                0.46905244696330683,
                0.0,
                -137.45341929244108,
                -103.90650275698073,
                96.21625106720391,
                1.0
            ],
            "camera": 0,
            "name": "current camera"
        },
        {
            "children": [
                2,
                3,
                4,
                5,
                6,
                7
            ],
            "name": "main"
        },
        {
            "mesh": 0,
            "name": "pilier droit-1"
        },
        {
            "mesh": 1,
            "name": "tour-1"
        },
        {
            "mesh": 2,
            "name": "murs bas cotes-1"
        },
        {
            "mesh": 3,
            "name": "pilier-1"
        },
        {
            "mesh": 4,
            "name": "Abside-1"
        },
        {
            "mesh": 5,
            "name": "nef-1"
        }
    ],
    "cameras": [
        {
            "type": "orthographic",
            "orthographic": {
                "xmag": 41.11048468489153,
                "ymag": 31.767192711052548,
                "zfar": 260.79110495978273,
                "znear": 138.1231972168989
            }
        }
    ],
    "meshes": [
        {
            "primitives": [
                {
                    "attributes": {
                        "POSITION": 1,
                        "NORMAL": 2
                    },
                    "indices": 0,
                    "material": 0,
                    "mode": 4
                }
            ]
        },
        {
            "primitives": [
                {
                    "attributes": {
                        "POSITION": 4,
                        "NORMAL": 5
                    },
                    "indices": 3,
                    "material": 0,
                    "mode": 4
                }
            ]
        },
        {
            "primitives": [
                {
                    "attributes": {
                        "POSITION": 7,
                        "NORMAL": 8
                    },
                    "indices": 6,
                    "material": 0,
                    "mode": 4
                }
            ]
        },
        {
            "primitives": [
                {
                    "attributes": {
                        "POSITION": 10,
                        "NORMAL": 11
                    },
                    "indices": 9,
                    "material": 0,
                    "mode": 4
                }
            ]
        },
        {
            "primitives": [
                {
                    "attributes": {
                        "POSITION": 13,
                        "NORMAL": 14
                    },
                    "indices": 12,
                    "material": 0,
                    "mode": 4
                }
            ]
        },
        {
            "primitives": [
                {
                    "attributes": {
                        "POSITION": 16,
                        "NORMAL": 17
                    },
                    "indices": 15,
                    "material": 1,
                    "mode": 4
                },
                {
                    "attributes": {
                        "POSITION": 19,
                        "NORMAL": 20
                    },
                    "indices": 18,
                    "material": 0,
                    "mode": 4
                },
                {
                    "attributes": {
                        "POSITION": 22,
                        "NORMAL": 23
                    },
                    "indices": 21,
                    "material": 2,
                    "mode": 4
                },
                {
                    "attributes": {
                        "POSITION": 25,
                        "NORMAL": 26,
                        "TEXCOORD_0": 27
                    },
                    "indices": 24,
                    "material": 3,
                    "mode": 4
                },
                {
                    "attributes": {
                        "POSITION": 29,
                        "NORMAL": 30,
                        "TEXCOORD_0": 31
                    },
                    "indices": 28,
                    "material": 4,
                    "mode": 4
                }
            ]
        }
    ],
    "accessors": [
        {
            "bufferView": 0,
            "byteOffset": 0,
            "componentType": 5125,
            "count": 140148,
            "type": "SCALAR",
            "min": [
                0
            ],
            "max": [
                64127
            ]
        },
        {
            "bufferView": 1,
            "byteOffset": 0,
            "componentType": 5126,
            "count": 64128,
            "type": "VEC3",
            "min": [
                -8.789999961853027,
                -2.7899999618530273,
                0.75
            ],
            "max": [
                8.789999961853027,
                3.0,
                5.36324405670166
            ]
        },
        {
            "bufferView": 2,
            "byteOffset": 0,
            "componentType": 5126,
            "count": 64128,
            "type": "VEC3",
            "min": [
                -1.0,
                -1.0,
                -1.0
            ],
            "max": [
                1.0,
                1.0,
                1.0
            ]
        },
        {
            "bufferView": 3,
            "byteOffset": 0,
            "componentType": 5125,
            "count": 10794,
            "type": "SCALAR",
            "min": [
                0
            ],
            "max": [
                5509
            ]
        },
        {
            "bufferView": 4,
            "byteOffset": 0,
            "componentType": 5126,
            "count": 5510,
            "type": "VEC3",
            "min": [
                -10.394112586975098,
                -63.39411163330078,
                -1.7763568394002505e-15
            ],
            "max": [
                10.394112586975098,
                -42.60588836669922,
                24.5
            ]
        },
        {
            "bufferView": 5,
            "byteOffset": 0,
            "componentType": 5126,
            "count": 5510,
            "type": "VEC3",
            "min": [
                -1.0,
                -1.0,
                -1.0
            ],
            "max": [
                1.0,
                1.0,
                1.0
            ]
        },
        {
            "bufferView": 6,
            "byteOffset": 0,
            "componentType": 5125,
            "count": 336,
            "type": "SCALAR",
            "min": [
                0
            ],
            "max": [
                195
            ]
        },
        {
            "bufferView": 7,
            "byteOffset": 0,
            "componentType": 5126,
            "count": 196,
            "type": "VEC3",
            "min": [
                -13.479999542236328,
                -44.585784912109375,
                0.0
            ],
            "max": [
                13.479999542236328,
                -3.7899999618530273,
                13.0
            ]
        },
        {
            "bufferView": 8,
            "byteOffset": 0,
            "componentType": 5126,
            "count": 196,
            "type": "VEC3",
            "min": [
                -1.0,
                -1.0,
                -1.0
            ],
            "max": [
                1.0,
                1.0,
                1.0
            ]
        },
        {
            "bufferView": 9,
            "byteOffset": 0,
            "componentType": 5125,
            "count": 173688,
            "type": "SCALAR",
            "min": [
                0
            ],
            "max": [
                79053
            ]
        },
        {
            "bufferView": 10,
            "byteOffset": 0,
            "componentType": 5126,
            "count": 79054,
            "type": "VEC3",
            "min": [
                -7.786050319671631,
                4.0,
                0.75
            ],
            "max": [
                7.786050319671631,
                11.786049842834473,
                5.358319282531738
            ]
        },
        {
            "bufferView": 11,
            "byteOffset": 0,
            "componentType": 5126,
            "count": 79054,
            "type": "VEC3",
            "min": [
                -1.0,
                -1.0,
                -1.0
            ],
            "max": [
                1.0,
                1.0,
                1.0
            ]
        },
        {
            "bufferView": 12,
            "byteOffset": 0,
            "componentType": 5125,
            "count": 1710,
            "type": "SCALAR",
            "min": [
                0
            ],
            "max": [
                787
            ]
        },
        {
            "bufferView": 13,
            "byteOffset": 0,
            "componentType": 5126,
            "count": 788,
            "type": "VEC3",
            "min": [
                -9.0,
                -3.7899999618530273,
                -7.105427357601002e-15
            ],
            "max": [
                9.0,
                11.75,
                13.0
            ]
        },
        {
            "bufferView": 14,
            "byteOffset": 0,
            "componentType": 5126,
            "count": 788,
            "type": "VEC3",
            "min": [
                -1.0,
                -1.0,
                -1.0
            ],
            "max": [
                1.0,
                1.0,
                1.0
            ]
        },
        {
            "bufferView": 15,
            "byteOffset": 0,
            "componentType": 5125,
            "count": 24726,
            "type": "SCALAR",
            "min": [
                0
            ],
            "max": [
                11797
            ]
        },
        {
            "bufferView": 16,
            "byteOffset": 0,
            "componentType": 5126,
            "count": 11798,
            "type": "VEC3",
            "min": [
                -12.479999542236328,
                -40.0099983215332,
                0.0
            ],
            "max": [
                12.479999542236328,
                -4.789999961853027,
                13.0
            ]
        },
        {
            "bufferView": 17,
            "byteOffset": 0,
            "componentType": 5126,
            "count": 11798,
            "type": "VEC3",
            "min": [
                -1.0,
                -1.0,
                -1.0
            ],
            "max": [
                1.0,
                1.0,
                1.0
            ]
        },
        {
            "bufferView": 15,
            "byteOffset": 98904,
            "componentType": 5125,
            "count": 136362,
            "type": "SCALAR",
            "min": [
                0
            ],
            "max": [
                60403
            ]
        },
        {
            "bufferView": 16,
            "byteOffset": 141576,
            "componentType": 5126,
            "count": 60404,
            "type": "VEC3",
            "min": [
                -12.479999542236328,
                -36.59000015258789,
                0.0
            ],
            "max": [
                12.479999542236328,
                -4.789999961853027,
                10.840539932250977
            ]
        },
        {
            "bufferView": 17,
            "byteOffset": 141576,
            "componentType": 5126,
            "count": 60404,
            "type": "VEC3",
            "min": [
                -1.0,
                -1.0,
                -1.0
            ],
            "max": [
                1.0,
                1.0,
                1.0
            ]
        },
        {
            "bufferView": 15,
            "byteOffset": 644352,
            "componentType": 5125,
            "count": 48780,
            "type": "SCALAR",
            "min": [
                0
            ],
            "max": [
                16945
            ]
        },
        {
            "bufferView": 16,
            "byteOffset": 866424,
            "componentType": 5126,
            "count": 16946,
            "type": "VEC3",
            "min": [
                -8.255485534667969,
                -36.69548416137695,
                0.3990263044834137
            ],
            "max": [
                8.255485534667969,
                -8.104514122009277,
                2.734999895095825
            ]
        },
        {
            "bufferView": 17,
            "byteOffset": 866424,
            "componentType": 5126,
            "count": 16946,
            "type": "VEC3",
            "min": [
                -1.0,
                -1.0,
                -1.0
            ],
            "max": [
                1.0,
                1.0,
                1.0
            ]
        },
        {
            "bufferView": 15,
            "byteOffset": 839472,
            "componentType": 5125,
            "count": 2376,
            "type": "SCALAR",
            "min": [
                0
            ],
            "max": [
                869
            ]
        },
        {
            "bufferView": 16,
            "byteOffset": 1069776,
            "componentType": 5126,
            "count": 870,
            "type": "VEC3",
            "min": [
                -12.479999542236328,
                -14.149999618530273,
                2.734999895095825
            ],
            "max": [
                -7.650000095367432,
                -8.3149995803833,
                5.150000095367432
            ]
        },
        {
            "bufferView": 17,
            "byteOffset": 1069776,
            "componentType": 5126,
            "count": 870,
            "type": "VEC3",
            "min": [
                -1.0,
                -1.0,
                -1.0
            ],
            "max": [
                1.0,
                1.0,
                1.0
            ]
        },
        {
            "bufferView": 18,
            "byteOffset": 0,
            "componentType": 5126,
            "count": 870,
            "type": "VEC2",
            "min": [
                -1.3891664743423462,
                -1.3891664743423462
            ],
            "max": [
                2.3891665935516357,
                2.3891665935516357
            ]
        },
        {
            "bufferView": 15,
            "byteOffset": 848976,
            "componentType": 5125,
            "count": 17520,
            "type": "SCALAR",
            "min": [
                0
            ],
            "max": [
                6479
            ]
        },
        {
            "bufferView": 16,
            "byteOffset": 1080216,
            "componentType": 5126,
            "count": 6480,
            "type": "VEC3",
            "min": [
                -7.650000095367432,
                -40.0099983215332,
                2.734999895095825
            ],
            "max": [
                7.650000095367432,
                -4.789999961853027,
                11.995347023010254
            ]
        },
        {
            "bufferView": 17,
            "byteOffset": 1080216,
            "componentType": 5126,
            "count": 6480,
            "type": "VEC3",
            "min": [
                -1.0,
                -1.0,
                -1.0
            ],
            "max": [
                1.0,
                1.0,
                1.0
            ]
        },
        {
            "bufferView": 18,
            "byteOffset": 6960,
            "componentType": 5126,
            "count": 6480,
            "type": "VEC2",
            "min": [
                -13.804999351501465,
                -13.479912757873535
            ],
            "max": [
                14.804999351501465,
                14.804999351501465
            ]
        }
    ],
    "materials": [
        {
            "name": "defaultplastic",
            "pbrMetallicRoughness": {
                "baseColorFactor": [
                    0.5989418101001601,
                    0.6455552910764322,
                    0.8591735777059335,
                    1.0
                ],
                "metallicFactor": 0.0,
                "roughnessFactor": 0.16999999880790712
            }
        },
        {
            "name": "defaultplastic",
            "pbrMetallicRoughness": {
                "baseColorFactor": [
                    0.991392844104757,
                    0.737204801730444,
                    0.5479935247916575,
                    1.0
                ],
                "metallicFactor": 0.0,
                "roughnessFactor": 0.16999999880790712
            }
        },
        {
            "doubleSided": true,
            "name": "defaultplastic",
            "pbrMetallicRoughness": {
                "baseColorFactor": [
                    0.5989418101001601,
                    0.6455552910764322,
                    0.8591735777059335,
                    1.0
                ],
                "metallicFactor": 0.0,
                "roughnessFactor": 0.16999999880790712
            }
        },
        {
            "name": "oldenglishbrick",
            "pbrMetallicRoughness": {
                "baseColorTexture": {
                    "index": 0
                },
                "baseColorFactor": [
                    1.0,
                    1.0,
                    1.0,
                    1.0
                ],
                "metallicFactor": 0.0,
                "roughnessFactor": 0.99
            }
        },
        {
            "name": "oldenglishbrick",
            "pbrMetallicRoughness": {
                "baseColorTexture": {
                    "index": 1
                },
                "baseColorFactor": [
                    1.0,
                    1.0,
                    1.0,
                    1.0
                ],
                "metallicFactor": 0.0,
                "roughnessFactor": 0.99
            }
        }
    ],
    "textures": [
        {
            "sampler": 0,
            "source": 0
        },
        {
            "sampler": 1,
            "source": 1
        }
    ],
    "images": [
        {
            "uri": "old english brick.jpg"
        },
        {
            "uri": "old english brick.jpg"
        }
    ],
    "samplers": [
        {
            "magFilter": 9729,
            "minFilter": 9729,
            "wrapS": 10497,
            "wrapT": 10497
        },
        {
            "magFilter": 9729,
            "minFilter": 9729,
            "wrapS": 10497,
            "wrapT": 10497
        }
    ],
    "bufferViews": [
        {
            "buffer": 0,
            "byteOffset": 0,
            "byteLength": 560592,
            "target": 34963
        },
        {
            "buffer": 0,
            "byteOffset": 560592,
            "byteLength": 769536,
            "byteStride": 12,
            "target": 34962
        },
        {
            "buffer": 0,
            "byteOffset": 1330128,
            "byteLength": 769536,
            "byteStride": 12,
            "target": 34962
        },
        {
            "buffer": 1,
            "byteOffset": 0,
            "byteLength": 43176,
            "target": 34963
        },
        {
            "buffer": 1,
            "byteOffset": 43176,
            "byteLength": 66120,
            "byteStride": 12,
            "target": 34962
        },
        {
            "buffer": 1,
            "byteOffset": 109296,
            "byteLength": 66120,
            "byteStride": 12,
            "target": 34962
        },
        {
            "buffer": 2,
            "byteOffset": 0,
            "byteLength": 1344,
            "target": 34963
        },
        {
            "buffer": 2,
            "byteOffset": 1344,
            "byteLength": 2352,
            "byteStride": 12,
            "target": 34962
        },
        {
            "buffer": 2,
            "byteOffset": 3696,
            "byteLength": 2352,
            "byteStride": 12,
            "target": 34962
        },
        {
            "buffer": 3,
            "byteOffset": 0,
            "byteLength": 694752,
            "target": 34963
        },
        {
            "buffer": 3,
            "byteOffset": 694752,
            "byteLength": 948648,
            "byteStride": 12,
            "target": 34962
        },
        {
            "buffer": 3,
            "byteOffset": 1643400,
            "byteLength": 948648,
            "byteStride": 12,
            "target": 34962
        },
        {
            "buffer": 4,
            "byteOffset": 0,
            "byteLength": 6840,
            "target": 34963
        },
        {
            "buffer": 4,
            "byteOffset": 6840,
            "byteLength": 9456,
            "byteStride": 12,
            "target": 34962
        },
        {
            "buffer": 4,
            "byteOffset": 16296,
            "byteLength": 9456,
            "byteStride": 12,
            "target": 34962
        },
        {
            "buffer": 5,
            "byteOffset": 0,
            "byteLength": 919056,
            "target": 34963
        },
        {
            "buffer": 5,
            "byteOffset": 919056,
            "byteLength": 1157976,
            "byteStride": 12,
            "target": 34962
        },
        {
            "buffer": 5,
            "byteOffset": 2077032,
            "byteLength": 1157976,
            "byteStride": 12,
            "target": 34962
        },
        {
            "buffer": 5,
            "byteOffset": 3235008,
            "byteLength": 58800,
            "byteStride": 8,
            "target": 34962
        }
    ],
    "buffers": [
        {
            "uri": "pilier droit-1@main.bin",
            "byteLength": 2099664
        },
        {
            "uri": "tour-1@main.bin",
            "byteLength": 175416
        },
        {
            "uri": "murs bas cotes-1@main.bin",
            "byteLength": 6048
        },
        {
            "uri": "pilier-1@main.bin",
            "byteLength": 2592048
        },
        {
            "uri": "Abside-1@main.bin",
            "byteLength": 25752
        },
        {
            "uri": "nef-1@main.bin",
            "byteLength": 3293808
        }
    ]
}
