{
    "asset": {
        "generator": "SOLIDWORKSGLTF",
        "version": "2.0"
    },
    "scene": 0,
    "scenes": [
        {
            "name": "Default",
            "nodes": [
                0,
                1
            ]
        }
    ],
    "nodes": [
        {
            "matrix": [
                -0.5252103201718552,
                -0.8398103060743657,
                -0.13737819840228438,
                0.0,
                0.06577410452325375,
                -0.2010162983811037,
                0.9773772122161039,
                0.0,
                -0.8484267126624087,
                0.5042926705757671,
                0.16081360528394167,
                0.0,
                -159.43838917701703,
                69.62294959259835,
                47.825619464111185,
                1.0
            ],
            "camera": 0,
            "name": "current camera"
        },
        {
            "children": [
                2,
                3,
                4,
                5
            ],
            "name": "main"
        },
        {
            "mesh": 0,
            "name": "Abside-1"
        },
        {
            "mesh": 1,
            "name": "tour-1"
        },
        {
            "mesh": 2,
            "name": "nef-1"
        },
        {
            "mesh": 3,
            "name": "pilier-1"
        }
    ],
    "cameras": [
        {
            "type": "orthographic",
            "orthographic": {
                "xmag": 38.137914286142156,
                "ymag": 29.470206493837118,
                "zfar": 284.0508156740402,
                "znear": 139.85820119626416
            }
        }
    ],
    "meshes": [
        {
            "primitives": [
                {
                    "attributes": {
                        "POSITION": 1,
                        "NORMAL": 2
                    },
                    "indices": 0,
                    "material": 0,
                    "mode": 4
                }
            ]
        },
        {
            "primitives": [
                {
                    "attributes": {
                        "POSITION": 4,
                        "NORMAL": 5
                    },
                    "indices": 3,
                    "material": 0,
                    "mode": 4
                }
            ]
        },
        {
            "primitives": [
                {
                    "attributes": {
                        "POSITION": 7,
                        "NORMAL": 8
                    },
                    "indices": 6,
                    "material": 0,
                    "mode": 4
                }
            ]
        },
        {
            "primitives": [
                {
                    "attributes": {
                        "POSITION": 10,
                        "NORMAL": 11
                    },
                    "indices": 9,
                    "material": 0,
                    "mode": 4
                }
            ]
        }
    ],
    "accessors": [
        {
            "bufferView": 0,
            "byteOffset": 0,
            "componentType": 5125,
            "count": 1302,
            "type": "SCALAR",
            "min": [
                0
            ],
            "max": [
                571
            ]
        },
        {
            "bufferView": 1,
            "byteOffset": 0,
            "componentType": 5126,
            "count": 572,
            "type": "VEC3",
            "min": [
                -9.0,
                3.0,
                0.0
            ],
            "max": [
                9.0,
                11.75,
                12.0
            ]
        },
        {
            "bufferView": 2,
            "byteOffset": 0,
            "componentType": 5126,
            "count": 572,
            "type": "VEC3",
            "min": [
                -1.0,
                -1.0,
                -1.0
            ],
            "max": [
                1.0,
                1.0,
                1.0
            ]
        },
        {
            "bufferView": 3,
            "byteOffset": 0,
            "componentType": 5125,
            "count": 15624,
            "type": "SCALAR",
            "min": [
                0
            ],
            "max": [
                7875
            ]
        },
        {
            "bufferView": 4,
            "byteOffset": 0,
            "componentType": 5126,
            "count": 7876,
            "type": "VEC3",
            "min": [
                -12.159546852111816,
                -62.1595458984375,
                0.0
            ],
            "max": [
                12.159546852111816,
                -42.111572265625,
                35.21028137207031
            ]
        },
        {
            "bufferView": 5,
            "byteOffset": 0,
            "componentType": 5126,
            "count": 7876,
            "type": "VEC3",
            "min": [
                -1.0,
                -1.0,
                -1.0
            ],
            "max": [
                1.0,
                1.0,
                1.0
            ]
        },
        {
            "bufferView": 6,
            "byteOffset": 0,
            "componentType": 5125,
            "count": 168,
            "type": "SCALAR",
            "min": [
                0
            ],
            "max": [
                95
            ]
        },
        {
            "bufferView": 7,
            "byteOffset": 0,
            "componentType": 5126,
            "count": 96,
            "type": "VEC3",
            "min": [
                -8.0,
                -44.0,
                0.0
            ],
            "max": [
                8.0,
                3.0,
                15.0
            ]
        },
        {
            "bufferView": 8,
            "byteOffset": 0,
            "componentType": 5126,
            "count": 96,
            "type": "VEC3",
            "min": [
                -1.0,
                -1.0,
                -1.0
            ],
            "max": [
                1.0,
                1.0,
                1.0
            ]
        },
        {
            "bufferView": 9,
            "byteOffset": 0,
            "componentType": 5125,
            "count": 167268,
            "type": "SCALAR",
            "min": [
                0
            ],
            "max": [
                75843
            ]
        },
        {
            "bufferView": 10,
            "byteOffset": 0,
            "componentType": 5126,
            "count": 75844,
            "type": "VEC3",
            "min": [
                -7.786050319671631,
                4.0,
                0.75
            ],
            "max": [
                7.786050319671631,
                11.786049842834473,
                5.358319282531738
            ]
        },
        {
            "bufferView": 11,
            "byteOffset": 0,
            "componentType": 5126,
            "count": 75844,
            "type": "VEC3",
            "min": [
                -1.0,
                -1.0,
                -1.0
            ],
            "max": [
                1.0,
                1.0,
                1.0
            ]
        }
    ],
    "materials": [
        {
            "name": "defaultplastic",
            "pbrMetallicRoughness": {
                "baseColorFactor": [
                    0.5989418101001601,
                    0.6455552910764322,
                    0.8591735777059335,
                    1.0
                ],
                "metallicFactor": 0.0,
                "roughnessFactor": 0.16999999880790712
            }
        }
    ],
    "bufferViews": [
        {
            "buffer": 0,
            "byteOffset": 0,
            "byteLength": 5208,
            "target": 34963
        },
        {
            "buffer": 0,
            "byteOffset": 5208,
            "byteLength": 6864,
            "byteStride": 12,
            "target": 34962
        },
        {
            "buffer": 0,
            "byteOffset": 12072,
            "byteLength": 6864,
            "byteStride": 12,
            "target": 34962
        },
        {
            "buffer": 1,
            "byteOffset": 0,
            "byteLength": 62496,
            "target": 34963
        },
        {
            "buffer": 1,
            "byteOffset": 62496,
            "byteLength": 94512,
            "byteStride": 12,
            "target": 34962
        },
        {
            "buffer": 1,
            "byteOffset": 157008,
            "byteLength": 94512,
            "byteStride": 12,
            "target": 34962
        },
        {
            "buffer": 2,
            "byteOffset": 0,
            "byteLength": 672,
            "target": 34963
        },
        {
            "buffer": 2,
            "byteOffset": 672,
            "byteLength": 1152,
            "byteStride": 12,
            "target": 34962
        },
        {
            "buffer": 2,
            "byteOffset": 1824,
            "byteLength": 1152,
            "byteStride": 12,
            "target": 34962
        },
        {
            "buffer": 3,
            "byteOffset": 0,
            "byteLength": 669072,
            "target": 34963
        },
        {
            "buffer": 3,
            "byteOffset": 669072,
            "byteLength": 910128,
            "byteStride": 12,
            "target": 34962
        },
        {
            "buffer": 3,
            "byteOffset": 1579200,
            "byteLength": 910128,
            "byteStride": 12,
            "target": 34962
        }
    ],
    "buffers": [
        {
            "uri": "Abside-1@main.bin",
            "byteLength": 18936
        },
        {
            "uri": "tour-1@main.bin",
            "byteLength": 251520
        },
        {
            "uri": "nef-1@main.bin",
            "byteLength": 2976
        },
        {
            "uri": "pilier-1@main.bin",
            "byteLength": 2489328
        }
    ]
}
